<mxfile host="app.diagrams.net" modified="2020-09-28T08:42:14.310Z" agent="5.0 (Windows NT 6.1; Win64; x64) AppleWebKit/537.36 (KHTML, like Gecko) Chrome/85.0.4183.121 Safari/537.36" etag="8DfPf7VMCNkBoXtB9vb9" version="13.7.5" type="github">
  <diagram id="gAs26bB1ovQmsWkdYhEW" name="Page-1">
    <mxGraphModel dx="1422" dy="794" grid="1" gridSize="10" guides="1" tooltips="1" connect="1" arrows="1" fold="1" page="1" pageScale="1" pageWidth="827" pageHeight="1169" math="0" shadow="0">
      <root>
        <mxCell id="0" />
        <mxCell id="1" parent="0" />
        <mxCell id="eduJWTz_ZW2DFyt5zifo-1" value="" style="rounded=0;whiteSpace=wrap;html=1;" vertex="1" parent="1">
          <mxGeometry x="620" y="30" width="160" height="200" as="geometry" />
        </mxCell>
        <mxCell id="eduJWTz_ZW2DFyt5zifo-2" value="DATABASE&lt;br&gt;" style="text;html=1;strokeColor=none;fillColor=none;align=center;verticalAlign=middle;whiteSpace=wrap;rounded=0;" vertex="1" parent="1">
          <mxGeometry x="690" y="40" width="40" height="20" as="geometry" />
        </mxCell>
        <mxCell id="eduJWTz_ZW2DFyt5zifo-3" value="&lt;ul&gt;&lt;li&gt;Firstname Text&lt;/li&gt;&lt;li&gt;Lastname Text&lt;/li&gt;&lt;li&gt;Email Text&lt;/li&gt;&lt;li&gt;Address&lt;/li&gt;&lt;li&gt;Sex&lt;/li&gt;&lt;li&gt;DayIn Date&lt;/li&gt;&lt;li&gt;DayOut Date&lt;/li&gt;&lt;li&gt;UserID UniqueKey&lt;/li&gt;&lt;/ul&gt;" style="text;html=1;strokeColor=none;fillColor=none;align=center;verticalAlign=middle;whiteSpace=wrap;rounded=0;" vertex="1" parent="1">
          <mxGeometry x="630" y="70" width="140" height="150" as="geometry" />
        </mxCell>
        <mxCell id="eduJWTz_ZW2DFyt5zifo-4" value="Actor" style="shape=umlActor;verticalLabelPosition=bottom;verticalAlign=top;html=1;outlineConnect=0;" vertex="1" parent="1">
          <mxGeometry x="690" y="470" width="55" height="110" as="geometry" />
        </mxCell>
        <mxCell id="eduJWTz_ZW2DFyt5zifo-5" value="" style="shape=parallelogram;perimeter=parallelogramPerimeter;whiteSpace=wrap;html=1;fixedSize=1;" vertex="1" parent="1">
          <mxGeometry x="430" y="480" width="150" height="105" as="geometry" />
        </mxCell>
        <mxCell id="eduJWTz_ZW2DFyt5zifo-6" value="CARD&lt;br&gt;" style="text;html=1;strokeColor=none;fillColor=none;align=center;verticalAlign=middle;whiteSpace=wrap;rounded=0;" vertex="1" parent="1">
          <mxGeometry x="490" y="480" width="40" height="20" as="geometry" />
        </mxCell>
        <mxCell id="eduJWTz_ZW2DFyt5zifo-7" value="&lt;ul&gt;&lt;li&gt;Barcode&lt;/li&gt;&lt;/ul&gt;" style="text;html=1;strokeColor=none;fillColor=none;align=center;verticalAlign=middle;whiteSpace=wrap;rounded=0;" vertex="1" parent="1">
          <mxGeometry x="450" y="500" width="60" height="30" as="geometry" />
        </mxCell>
        <mxCell id="eduJWTz_ZW2DFyt5zifo-8" value="" style="endArrow=classic;html=1;exitX=0;exitY=0.3333333333333333;exitDx=0;exitDy=0;exitPerimeter=0;entryX=1;entryY=0.25;entryDx=0;entryDy=0;" edge="1" parent="1" source="eduJWTz_ZW2DFyt5zifo-4" target="eduJWTz_ZW2DFyt5zifo-5">
          <mxGeometry width="50" height="50" relative="1" as="geometry">
            <mxPoint x="390" y="350" as="sourcePoint" />
            <mxPoint x="440" y="300" as="targetPoint" />
          </mxGeometry>
        </mxCell>
        <mxCell id="eduJWTz_ZW2DFyt5zifo-9" value="" style="rounded=0;whiteSpace=wrap;html=1;" vertex="1" parent="1">
          <mxGeometry x="280" y="160" width="200" height="220" as="geometry" />
        </mxCell>
        <mxCell id="eduJWTz_ZW2DFyt5zifo-10" value="Desktop APP&lt;br&gt;" style="text;html=1;strokeColor=none;fillColor=none;align=center;verticalAlign=middle;whiteSpace=wrap;rounded=0;" vertex="1" parent="1">
          <mxGeometry x="360" y="170" width="40" height="20" as="geometry" />
        </mxCell>
        <mxCell id="eduJWTz_ZW2DFyt5zifo-11" value="" style="shape=parallelogram;perimeter=parallelogramPerimeter;whiteSpace=wrap;html=1;fixedSize=1;" vertex="1" parent="1">
          <mxGeometry x="50" y="460" width="230" height="140" as="geometry" />
        </mxCell>
        <mxCell id="eduJWTz_ZW2DFyt5zifo-12" value="CARD READER&lt;br&gt;" style="text;html=1;strokeColor=none;fillColor=none;align=center;verticalAlign=middle;whiteSpace=wrap;rounded=0;" vertex="1" parent="1">
          <mxGeometry x="140" y="470" width="40" height="20" as="geometry" />
        </mxCell>
        <mxCell id="eduJWTz_ZW2DFyt5zifo-13" value="" style="endArrow=classic;html=1;exitX=0.067;exitY=0.429;exitDx=0;exitDy=0;exitPerimeter=0;entryX=1;entryY=0.5;entryDx=0;entryDy=0;" edge="1" parent="1" source="eduJWTz_ZW2DFyt5zifo-5" target="eduJWTz_ZW2DFyt5zifo-11">
          <mxGeometry width="50" height="50" relative="1" as="geometry">
            <mxPoint x="390" y="320" as="sourcePoint" />
            <mxPoint x="440" y="270" as="targetPoint" />
          </mxGeometry>
        </mxCell>
        <mxCell id="eduJWTz_ZW2DFyt5zifo-14" value="&lt;ul&gt;&lt;li&gt;Reads Card barcode&lt;/li&gt;&lt;li&gt;Sends information to&amp;nbsp; &amp;nbsp; &amp;nbsp; &amp;nbsp; desktop app&lt;/li&gt;&lt;/ul&gt;" style="text;html=1;strokeColor=none;fillColor=none;align=center;verticalAlign=middle;whiteSpace=wrap;rounded=0;" vertex="1" parent="1">
          <mxGeometry x="50" y="500" width="220" height="100" as="geometry" />
        </mxCell>
        <mxCell id="eduJWTz_ZW2DFyt5zifo-18" value="" style="endArrow=classic;startArrow=classic;html=1;exitX=0.5;exitY=0;exitDx=0;exitDy=0;entryX=0.5;entryY=1;entryDx=0;entryDy=0;" edge="1" parent="1" source="eduJWTz_ZW2DFyt5zifo-11" target="eduJWTz_ZW2DFyt5zifo-9">
          <mxGeometry width="50" height="50" relative="1" as="geometry">
            <mxPoint x="390" y="170" as="sourcePoint" />
            <mxPoint x="440" y="120" as="targetPoint" />
          </mxGeometry>
        </mxCell>
        <mxCell id="eduJWTz_ZW2DFyt5zifo-19" value="" style="endArrow=classic;startArrow=classic;html=1;exitX=1;exitY=0.5;exitDx=0;exitDy=0;entryX=0;entryY=0.5;entryDx=0;entryDy=0;" edge="1" parent="1" source="eduJWTz_ZW2DFyt5zifo-9" target="eduJWTz_ZW2DFyt5zifo-1">
          <mxGeometry width="50" height="50" relative="1" as="geometry">
            <mxPoint x="390" y="170" as="sourcePoint" />
            <mxPoint x="440" y="120" as="targetPoint" />
          </mxGeometry>
        </mxCell>
        <mxCell id="eduJWTz_ZW2DFyt5zifo-24" value="" style="rounded=1;whiteSpace=wrap;html=1;" vertex="1" parent="1">
          <mxGeometry x="30" y="30" width="190" height="200" as="geometry" />
        </mxCell>
        <mxCell id="eduJWTz_ZW2DFyt5zifo-26" value="" style="endArrow=none;dashed=1;html=1;dashPattern=1 3;strokeWidth=2;entryX=0.463;entryY=0.995;entryDx=0;entryDy=0;entryPerimeter=0;" edge="1" parent="1" target="eduJWTz_ZW2DFyt5zifo-24">
          <mxGeometry width="50" height="50" relative="1" as="geometry">
            <mxPoint x="280" y="270" as="sourcePoint" />
            <mxPoint x="440" y="220" as="targetPoint" />
            <Array as="points">
              <mxPoint x="118" y="280" />
            </Array>
          </mxGeometry>
        </mxCell>
        <mxCell id="eduJWTz_ZW2DFyt5zifo-27" value="Registration form&lt;br&gt;" style="text;html=1;strokeColor=none;fillColor=none;align=center;verticalAlign=middle;whiteSpace=wrap;rounded=0;" vertex="1" parent="1">
          <mxGeometry x="105" y="40" width="40" height="20" as="geometry" />
        </mxCell>
        <mxCell id="eduJWTz_ZW2DFyt5zifo-28" value="&lt;ul&gt;&lt;li&gt;Firstname&lt;/li&gt;&lt;li&gt;Lastname&lt;/li&gt;&lt;li&gt;Email&lt;/li&gt;&lt;li&gt;Address Line&lt;/li&gt;&lt;li&gt;Sex&lt;/li&gt;&lt;/ul&gt;" style="text;html=1;strokeColor=none;fillColor=none;align=center;verticalAlign=middle;whiteSpace=wrap;rounded=0;" vertex="1" parent="1">
          <mxGeometry x="30" y="60" width="180" height="150" as="geometry" />
        </mxCell>
        <mxCell id="eduJWTz_ZW2DFyt5zifo-29" value="&lt;ul&gt;&lt;li&gt;Has registration form&lt;/li&gt;&lt;li&gt;Every Registration form creates new database entry&lt;/li&gt;&lt;li&gt;Receives from card reader barcode token&lt;/li&gt;&lt;li&gt;Asks info in database based on token&lt;/li&gt;&lt;li&gt;Receives info from database&lt;/li&gt;&lt;li&gt;Shows on screen information&lt;/li&gt;&lt;/ul&gt;" style="text;html=1;strokeColor=none;fillColor=none;align=center;verticalAlign=middle;whiteSpace=wrap;rounded=0;" vertex="1" parent="1">
          <mxGeometry x="280" y="190" width="200" height="190" as="geometry" />
        </mxCell>
        <mxCell id="eduJWTz_ZW2DFyt5zifo-30" value="" style="shape=parallelogram;perimeter=parallelogramPerimeter;whiteSpace=wrap;html=1;fixedSize=1;" vertex="1" parent="1">
          <mxGeometry x="600" y="290" width="190" height="120" as="geometry" />
        </mxCell>
        <mxCell id="eduJWTz_ZW2DFyt5zifo-31" value="Screen" style="text;html=1;strokeColor=none;fillColor=none;align=center;verticalAlign=middle;whiteSpace=wrap;rounded=0;" vertex="1" parent="1">
          <mxGeometry x="680" y="290" width="40" height="20" as="geometry" />
        </mxCell>
        <mxCell id="eduJWTz_ZW2DFyt5zifo-32" value="&lt;ul&gt;&lt;li&gt;Shows up a confirmation message&lt;/li&gt;&lt;/ul&gt;" style="text;html=1;strokeColor=none;fillColor=none;align=center;verticalAlign=middle;whiteSpace=wrap;rounded=0;" vertex="1" parent="1">
          <mxGeometry x="630" y="310" width="130" height="60" as="geometry" />
        </mxCell>
        <mxCell id="eduJWTz_ZW2DFyt5zifo-33" value="" style="endArrow=classic;html=1;exitX=1;exitY=0.75;exitDx=0;exitDy=0;entryX=0;entryY=0.5;entryDx=0;entryDy=0;" edge="1" parent="1" source="eduJWTz_ZW2DFyt5zifo-29" target="eduJWTz_ZW2DFyt5zifo-30">
          <mxGeometry width="50" height="50" relative="1" as="geometry">
            <mxPoint x="390" y="360" as="sourcePoint" />
            <mxPoint x="440" y="310" as="targetPoint" />
          </mxGeometry>
        </mxCell>
      </root>
    </mxGraphModel>
  </diagram>
</mxfile>
